# xmcd CD database file
#
# Track frame offsets:
#	150
#	20548
#	35153
#	53403
#	73608
#	98708
#	115593
#	138193
#	153205
#	170860
#	187863
#	205558
#	226205
#	244713
#	262848
#	263233
#	263608
#	263983
#	264358
#	264733
#	265108
#	265483
#	265858
#	266233
#	266608
#	266983
#	267358
#	267898
#
# Disc length: 3622 seconds
#
# Revision: 0
# Processed by: cddbd v1.5.1PL0 Copyright (c) Steve Scherf et al.
# Submitted via: Feurio! 1.67 - http://www.feurio.com
#
DISCID=9a0e241c
DTITLE=Will Ray - Invisible Birds
DYEAR=1996
DGENRE=country
TTITLE0=When The U-Haul Pulled Away
TTITLE1=That's History
TTITLE2=Folsom Prison Blues
TTITLE3=Invisible Birds
TTITLE4=Lucky Man
TTITLE5=Bless Me Father
TTITLE6=Gaylord's Dock
TTITLE7=Nagged To Death
TTITLE8=East Of Jesus
TTITLE9=Changes
TTITLE10=Wishful Thinking
TTITLE11=Flamethrower
TTITLE12=Come Dance With Me
TTITLE13=Slippery When Wet
TTITLE14=Dummy 1 (4 seconds silence)
TTITLE15=Dummy 2 (4 seconds silence)
TTITLE16=Dummy 3 (4 seconds silence)
TTITLE17=Dummy 4 (4 seconds silence)
TTITLE18=Dummy 5 (4 seconds silence)
TTITLE19=Dummy 6 (4 seconds silence)
TTITLE20=Dummy 7 (4 seconds silence)
TTITLE21=Dummy 8 (4 seconds silence)
TTITLE22=Dummy 9 (4 seconds silence)
TTITLE23=Dummy 10 (4 seconds silence)
TTITLE24=Dummy 11 (4 seconds silence)
TTITLE25=Dummy 12 (4 seconds silence)
TTITLE26=Dummy 13 (4 seconds silence)
TTITLE27=Invisible Birds (Reprise)
EXTD=
EXTT0=
EXTT1=
EXTT2=
EXTT3=
EXTT4=
EXTT5=
EXTT6=
EXTT7=
EXTT8=
EXTT9=
EXTT10=
EXTT11=
EXTT12=
EXTT13=
EXTT14=
EXTT15=
EXTT16=
EXTT17=
EXTT18=
EXTT19=
EXTT20=
EXTT21=
EXTT22=
EXTT23=
EXTT24=
EXTT25=
EXTT26=
EXTT27=
PLAYORDER=
